<?xml version="1.0" standalone="no"?>
<svg xmlns="http://www.w3.org/2000/svg" width="618" height="600" viewBox="0 0 618 600">
<title>Five-petal flower icon.</title>
<g transform="translate(309,317.360385) scale(0.303,-0.303)">
<path d="M-427.421 588.294A
427.5811514 427.5811514 0 1 0 427.421 588.294
427.5811514 427.5811514 0 1 0 691.581 -224.708
427.5811514 427.5811514 0 1 0 0 -727.172
427.5811514 427.5811514 0 1 0 -691.581 -224.708
427.5811514 427.5811514 0 1 0 -427.421 588.294Z"/>
<path fill="#ffde05" d="M349.284 551.237A
352.6711514 352.6711514 0 1 1 -154.312 282.887
322.2388486 322.2388486 0 0 0 154.312 282.887
427.5811514 427.5811514 0 0 0 349.284 551.237Z
M-416.323 502.53A
352.6711514 352.6711514 0 1 1 -316.727 -59.3425
322.2388486 322.2388486 0 0 0 -221.357 234.177
427.5811514 427.5811514 0 0 0 -416.323 502.53Z
M-606.586 -240.657A
352.6711514 352.6711514 0 1 1 -41.4356 -319.563
322.2388486 322.2388486 0 0 0 -291.118 -138.158
427.5811514 427.5811514 0 0 0 -606.586 -240.657Z
M41.4326 -651.264A
352.6711514 352.6711514 0 1 1 291.118 -138.158
322.2388486 322.2388486 0 0 0 41.4356 -319.563
427.5811514 427.5811514 0 0 0 41.4326 -651.264Z
M632.193 -161.847A
352.6711514 352.6711514 0 1 1 221.357 234.177
322.2388486 322.2388486 0 0 0 316.727 -59.3425
427.5811514 427.5811514 0 0 0 632.193 -161.847Z
M247.3288486,0A
247.3288486 247.3288486 0 1 1 -247.3288486,0
247.3288486 247.3288486 0 1 1 247.3288486,0Z"/>
</g></svg>
